<?xml version="1.0" encoding="UTF-8"?>
<svg version="1.1" xmlns="http://www.w3.org/2000/svg" width="900" height="900">
<path d="M0 0 C0.92232422 0.41378906 1.84464844 0.82757813 2.79492188 1.25390625 C6.43118968 2.88610882 10.0672558 4.51845808 13.69482422 6.16992188 C14.47873535 6.52634766 15.26264648 6.88277344 16.0703125 7.25 C16.75883301 7.56453125 17.44735352 7.8790625 18.15673828 8.203125 C20.16625861 9.10330562 20.16625861 9.10330562 23 10 C24.34111155 10.98954413 25.67321254 11.99133117 27 13 C28.89776033 14.15816653 30.81097502 15.29118207 32.734375 16.40625 C33.85827637 17.06222168 34.98217773 17.71819336 36.14013672 18.39404297 C37.02472565 18.90955719 37.02472565 18.90955719 37.92718506 19.43548584 C55.30294895 29.58283887 71.65937531 40.62967783 87.1875 53.4453125 C87.90357422 54.0345752 88.61964844 54.62383789 89.35742188 55.23095703 C90.75455306 56.38451361 92.14674832 57.54408246 93.53320312 58.71044922 C96.27998385 60.98395769 98.50600373 62.8045729 101.84375 64.125 C104 65 104 65 104.90600586 66.83178711 C106.16550724 69.32802272 107.58724254 70.69999165 109.66015625 72.56640625 C110.7265332 73.5419043 110.7265332 73.5419043 111.81445312 74.53710938 C112.55630859 75.20548828 113.29816406 75.87386719 114.0625 76.5625 C115.53725029 77.89194214 117.00752864 79.22636674 118.47265625 80.56640625 C119.12500244 81.15365479 119.77734863 81.74090332 120.44946289 82.34594727 C122 84 122 84 123 87 C124.32263011 87.68765675 125.65747062 88.35205163 127 89 C128.60546875 90.59375 128.60546875 90.59375 130.1875 92.5 C132.81129795 95.60844853 135.49187139 98.63497148 138.25 101.625 C142.89600776 106.76964232 147.15154079 112.17338098 151.390625 117.65234375 C153.47245548 120.3414996 155.62927672 122.95476108 157.8125 125.5625 C170.64444485 141.61552488 182.22756701 160.04628646 191.2421875 178.51171875 C192.75179321 181.96063073 192.75179321 181.96063073 195 184 C195.67028876 185.99878899 196.33608121 187.99908614 197 190 C198.30367161 192.9095381 199.72335129 195.76163615 201.125 198.625 C219.8605053 237.79649618 231.18467378 280.88289792 236 324 C236.08506805 324.75806946 236.17013611 325.51613892 236.25778198 326.29718018 C237.87437437 341.08836403 238.36306486 355.75239646 238.3125 370.625 C238.31100952 371.71673523 238.30951904 372.80847046 238.3079834 373.93328857 C238.26662394 390.83171228 237.5709425 407.27779212 235 424 C234.86078125 424.98291016 234.7215625 425.96582031 234.578125 426.97851562 C229.07317139 465.79353578 217.95262858 503.64108354 201 539 C200.62891113 539.77698242 200.25782227 540.55396484 199.87548828 541.35449219 C197.955461 545.34326255 195.97321118 549.29419017 193.92529297 553.21875 C193.00941622 554.98187316 192.11589536 556.75655076 191.22265625 558.53125 C181.26571691 578.07625415 168.60228778 595.85315471 155 613 C154.54254395 613.57814453 154.08508789 614.15628906 153.61376953 614.75195312 C151.12719994 617.87907918 148.57318248 620.94405286 146 624 C145.22011719 624.96421875 144.44023438 625.9284375 143.63671875 626.921875 C136.82408569 635.22922009 129.34045904 642.84790324 121.75 650.4375 C120.97086746 651.2179921 120.97086746 651.2179921 120.17599487 652.01425171 C114.29932522 657.88976232 108.36770297 663.65146154 102 669 C101.11054687 669.74765625 100.22109375 670.4953125 99.3046875 671.265625 C96.54419078 673.52017859 93.77581548 675.76432387 91 678 C90.47664062 678.42297363 89.95328125 678.84594727 89.4140625 679.28173828 C17.67295205 737.09940953 -72.28238821 768.99014202 -207.73925781 765.609375 C-234.42821895 762.62164989 -260.41707191 757.16408462 -286 749 C-287.26602051 748.596604 -287.26602051 748.596604 -288.55761719 748.18505859 C-337.2090643 732.43355047 -382.10942994 706.82751024 -420.82763672 673.52685547 C-423.15674224 671.5267575 -425.44040158 669.70639894 -428 668 C-428 667.34 -428 666.68 -428 666 C-428.58265625 665.731875 -429.1653125 665.46375 -429.765625 665.1875 C-432.02786601 663.98519009 -433.80576318 662.66174087 -435.75 661 C-436.36359375 660.484375 -436.9771875 659.96875 -437.609375 659.4375 C-439 658 -439 658 -439 656 C-439.99 655.67 -440.98 655.34 -442 655 C-442 654.34 -442 653.68 -442 653 C-442.57234375 652.7525 -443.1446875 652.505 -443.734375 652.25 C-446.35010611 650.80683801 -448.14773456 649.11783778 -450.25 647 C-450.95640625 646.29875 -451.6628125 645.5975 -452.390625 644.875 C-454 643 -454 643 -454 641 C-454.66 641 -455.32 641 -456 641 C-457.3046875 639.7421875 -457.3046875 639.7421875 -458.875 637.875 C-459.79345703 636.79412109 -459.79345703 636.79412109 -460.73046875 635.69140625 C-461.47941406 634.80324219 -462.22835937 633.91507813 -463 633 C-463.99487414 631.84139954 -464.99105752 630.68392251 -465.98828125 629.52734375 C-474.2744732 619.90785815 -474.2744732 619.90785815 -477.23828125 616.19921875 C-478.96263759 613.96417175 -478.96263759 613.96417175 -481 612 C-481.85453099 610.76439438 -482.68425986 609.51155161 -483.5 608.25 C-485.71458196 604.87998398 -488.00853022 601.58813487 -490.38476562 598.33007812 C-511.59966718 569.16376464 -536.15122805 531.20724911 -542.48925781 495.22216797 C-542.65780273 494.48885254 -542.82634766 493.75553711 -543 493 C-543.66 492.67 -544.32 492.34 -545 492 C-545.53393555 490.06860352 -545.53393555 490.06860352 -545.94921875 487.56640625 C-546.91867621 482.24335794 -548.31863426 477.13303113 -549.8125 471.9375 C-569.75131738 400.38944734 -565.79391651 325.81247365 -546.63916016 254.72265625 C-545.8857285 251.97934534 -545.8857285 251.97934534 -546 249 C-545.34 249 -544.68 249 -544 249 C-543.77570313 247.8140625 -543.55140625 246.628125 -543.3203125 245.40625 C-541.78903681 238.56743963 -539.32973077 232.04916228 -536.875 225.5 C-536.61733856 224.81069397 -536.35967712 224.12138794 -536.09420776 223.41119385 C-526.83001501 198.81201206 -515.06243667 175.2086708 -501 153 C-500.6194043 152.39510742 -500.23880859 151.79021484 -499.84667969 151.16699219 C-495.43015092 144.20071485 -490.55198707 137.56949586 -485.59130859 130.98461914 C-483.61383403 128.33728653 -482.05247966 126.15743899 -481 123 C-479.35716929 121.30983349 -477.68732291 119.64575118 -476 118 C-474.60258629 116.33101343 -473.22789895 114.64276997 -471.875 112.9375 C-467.62707008 107.68422667 -463.14333397 102.71764682 -458.55078125 97.76953125 C-456.5044649 95.54772682 -454.51935577 93.29966262 -452.5625 91 C-449.40580796 87.36595452 -446.06773455 83.92474422 -442.6875 80.5 C-442.15906494 79.95859375 -441.63062988 79.4171875 -441.08618164 78.859375 C-439.76298621 77.53297467 -438.38536199 76.2613311 -437 75 C-436.34 75 -435.68 75 -435 75 C-435 74.34 -435 73.68 -435 73 C-434.34 72.67 -433.68 72.34 -433 72 C-432.443125 70.80375 -431.88625 69.6075 -431.3125 68.375 C-427.9371529 61.5138399 -423.84622981 57.49640534 -416.625 54.875 C-410.87792385 52.69655717 -406.5305294 49.64114948 -401.75 45.875 C-401.02401611 45.30313965 -400.29803223 44.7312793 -399.55004883 44.14208984 C-398.07864542 42.98128534 -396.60737225 41.82031574 -395.13623047 40.65917969 C-382.56385879 30.89439821 -368.81400885 22.8551265 -355 15 C-354.26168945 14.57976562 -353.52337891 14.15953125 -352.76269531 13.7265625 C-332.23058017 2.16573054 -310.27101082 -6.44362747 -288 -14 C-287.16307617 -14.28713867 -286.32615234 -14.57427734 -285.46386719 -14.87011719 C-262.56862712 -22.66484163 -238.89165769 -27.45643116 -215 -31 C-213.88834473 -31.16661133 -212.77668945 -31.33322266 -211.63134766 -31.50488281 C-140.19771924 -41.71723815 -65.46016628 -29.47940771 0 0 Z M-343 90 C-344.00474365 90.68231689 -344.00474365 90.68231689 -345.02978516 91.37841797 C-353.74499914 97.3134886 -362.07989398 103.49842404 -370.02734375 110.4296875 C-372.77542798 112.80582341 -375.58591762 115.06277998 -378.4375 117.3125 C-387.37101959 124.58488198 -395.66574679 132.96589557 -403.10546875 141.76171875 C-404.71222536 143.66001058 -406.34258675 145.53015326 -407.98828125 147.39453125 C-414.70191261 155.02146815 -421.0689765 162.74102053 -427 171 C-427.60199219 171.82757813 -428.20398438 172.65515625 -428.82421875 173.5078125 C-433.55982235 180.12701574 -437.84821564 187.0028284 -442 194 C-442.34256836 194.57395508 -442.68513672 195.14791016 -443.03808594 195.73925781 C-454.7388821 215.48775908 -464.15876727 236.4500763 -472 258 C-472.31807617 258.86512207 -472.63615234 259.73024414 -472.96386719 260.62158203 C-502.04011763 340.57367506 -496.06713693 426.81093493 -461.46435547 503.88476562 C-454.72240754 518.22742244 -446.97713755 531.94626476 -438 545 C-437.55076172 545.6590332 -437.10152344 546.31806641 -436.63867188 546.99707031 C-429.9394606 556.75016653 -422.5851107 565.92739339 -415 575 C-414.48066895 575.62519531 -413.96133789 576.25039063 -413.42626953 576.89453125 C-402.28446421 590.25485319 -390.30398139 603.23402729 -376.578125 613.98046875 C-373.79423539 616.16118228 -371.12313649 618.44959825 -368.4375 620.75 C-353.33658858 633.27930935 -337.12752089 643.46670359 -320 653 C-319.11441406 653.49773926 -318.22882813 653.99547852 -317.31640625 654.50830078 C-264.9220488 683.76580442 -200.44897585 699.83671238 -140.4375 693.8125 C-139.45029465 693.71405289 -139.45029465 693.71405289 -138.44314575 693.61361694 C-106.45925336 690.38099659 -74.83926552 684.24372443 -45 672 C-44.19401367 671.67451172 -43.38802734 671.34902344 -42.55761719 671.01367188 C-14.7491766 659.71883705 12.56638573 645.95318458 36 627 C37.26953125 625.984375 38.5390625 624.96875 39.80859375 623.953125 C43.25641093 621.18268263 46.67832275 618.38214422 50.09082031 615.56835938 C51.79943177 614.16476347 53.51869695 612.7758604 55.2421875 611.390625 C69.11133871 600.02709653 82.0485564 587.20394001 93 573 C93.89741094 571.91106018 94.79872765 570.82533189 95.703125 569.7421875 C104.3000985 559.37554293 111.75696035 548.34395969 119 537 C119.45616699 536.29182129 119.91233398 535.58364258 120.38232422 534.85400391 C164.57189671 465.58799581 177.00092386 379.48172032 160 300 C147.98617497 246.21238906 123.66003166 195.07012461 88 153 C87.13867911 151.95365463 86.27803997 150.90674781 85.41796875 149.859375 C74.65992835 136.89036664 62.85222546 124.37048654 49.546875 113.98828125 C46.74740504 111.80280547 44.07011628 109.50020114 41.375 107.1875 C26.19245399 94.54842175 9.30265865 83.70934037 -8.1640625 74.50390625 C-10.28226658 73.38061621 -12.3779218 72.21461568 -14.4609375 71.02734375 C-45.92812955 53.32356558 -82.19739987 43.25584588 -117.6875 37.6875 C-118.70102539 37.52805908 -119.71455078 37.36861816 -120.75878906 37.2043457 C-195.9053322 26.12786743 -280.46046268 47.01155811 -343 90 Z " fill="#000000" transform="translate(612,85)"/>
<path d="M0 0 C0.6595166 0.00725098 1.3190332 0.01450195 1.99853516 0.02197266 C32.705082 0.43418796 62.99788866 8.96235469 86 30 C86.85078125 30.76957031 87.7015625 31.53914063 88.578125 32.33203125 C109.8442846 52.52183615 119.61033673 81.49200294 123.54296875 109.92578125 C123.82314513 112.90531254 123.82314513 112.90531254 125 115 C125.150411 116.39723446 125.24457676 117.80074705 125.30918789 119.20456791 C125.35009534 120.08485627 125.3910028 120.96514463 125.43314987 121.8721084 C125.49082603 123.3254345 125.49082603 123.3254345 125.54966736 124.80812073 C125.59167705 125.83076509 125.63368675 126.85340945 125.67696947 127.90704304 C126.14223236 140.28093795 126.17560376 152.65577335 126.20060861 165.03697455 C126.20877447 168.55907497 126.22241494 172.08115531 126.23532104 175.60324097 C126.25686899 181.68040762 126.27509193 187.75757654 126.29092598 193.83476067 C126.31386485 202.63829629 126.34197567 211.44180976 126.37124526 220.24532635 C126.4186917 234.55847903 126.46200438 248.87164106 126.50268555 263.18481445 C126.54205199 277.03247845 126.58350741 290.88013369 126.62768555 304.7277832 C126.63040982 305.58190983 126.63313409 306.43603645 126.63594092 307.31604569 C126.64690452 310.75069164 126.65788362 314.18533754 126.66888306 317.61998337 C126.75548506 344.66600691 126.83954608 371.71203813 126.91801322 398.75808656 C126.92397029 400.80072701 126.93001285 402.84336719 126.93608284 404.88600731 C126.93989904 406.17681017 126.94371525 407.46761303 126.94764709 408.79753113 C126.95148592 410.04060315 126.95532474 411.28367518 126.95927989 412.56441605 C126.9654758 414.92824047 126.96971204 417.29207106 126.97173035 419.65590274 C126.97673559 424.47756564 126.99478746 429.29501725 127.11009026 434.11541939 C127.12378401 434.86245929 127.13747776 435.6094992 127.15158647 436.37917668 C127.18843021 438.25366077 127.24111987 440.12781683 127.29563808 442.00187016 C126.86248244 446.39459532 125.06986726 448.93013274 122 452 C118.85778375 453.08004149 115.85902418 453.14507139 112.55485535 453.18513489 C111.44880447 453.20070435 110.3427536 453.2162738 109.20318604 453.23231506 C107.99426697 453.24435471 106.7853479 453.25639435 105.53979492 453.26879883 C104.26298355 453.2851236 102.98617218 453.30144836 101.67066956 453.31826782 C97.44066935 453.37157067 93.21058933 453.41456857 88.98046875 453.45703125 C87.5219905 453.47223545 86.06351285 453.48749638 84.60503578 453.50281334 C77.75307734 453.57412134 70.9010923 453.64062867 64.04903239 453.70140249 C56.14829325 453.77165594 48.24796429 453.85856526 40.34756011 453.95958501 C34.23457564 454.03665477 28.12155452 454.09812506 22.0082882 454.14799136 C18.35988963 454.17813377 14.71185061 454.21495185 11.06371117 454.26828957 C6.99192493 454.32737087 2.9205327 454.35415146 -1.15161133 454.37817383 C-2.3544577 454.40033463 -3.55730408 454.42249542 -4.79660034 454.44532776 C-11.3143705 454.45392644 -15.97985182 454.40532315 -21 450 C-23.90210934 443.0837257 -23.30657999 435.45190126 -23.31884766 428.0534668 C-23.32816535 426.64689571 -23.33833671 425.24033006 -23.34928894 423.83377075 C-23.37658942 420.00909433 -23.3917708 416.18445502 -23.40471697 412.35970664 C-23.42056459 408.27213849 -23.44734672 404.18464011 -23.4727478 400.09712219 C-23.51432475 393.16250797 -23.54872104 386.22788897 -23.578125 379.29321289 C-23.61836551 369.80625438 -23.67147986 360.31940458 -23.72740698 350.83252752 C-23.89192974 322.62978598 -24.01539139 294.42714476 -24.00488281 266.22387695 C-24.00460956 265.37758645 -24.00433631 264.53129596 -24.00405478 263.65936029 C-24.0011091 255.57133629 -23.99527752 247.4833316 -23.97945583 239.39532185 C-23.93014913 213.2535237 -24.31289578 187.13371659 -25 161 C-25.66 160.67 -26.32 160.34 -27 160 C-27.0825 159.071875 -27.165 158.14375 -27.25 157.1875 C-28.35716847 148.21943535 -33.53078864 140.29579014 -40.4765625 134.74609375 C-54.81406759 124.82525044 -70.97621983 122.45966389 -88 125 C-101.33352562 127.72555228 -115.38145983 134.20111315 -124 145 C-124.55042969 145.68707031 -125.10085938 146.37414062 -125.66796875 147.08203125 C-132.17718579 156.00206942 -134.89100967 166.66929756 -135.31464672 177.59387493 C-135.35637125 178.66065356 -135.39809578 179.72743218 -135.44108468 180.82653743 C-135.49963688 182.53501134 -135.49963688 182.53501134 -135.55937195 184.27799988 C-135.60163397 185.47549966 -135.64389598 186.67299944 -135.68743867 187.9067871 C-136.08654971 200.12428654 -136.10546324 212.3295434 -136.05004883 224.55200195 C-136.04319249 226.96986249 -136.03686662 229.38772458 -136.03102112 231.80558777 C-136.01785343 236.94690976 -136.00175959 242.08821072 -135.98346901 247.22951698 C-135.95530591 255.3615118 -135.938491 263.49350497 -135.92399597 271.62553406 C-135.91887627 274.42348582 -135.9137019 277.22143749 -135.90852642 280.01938915 C-135.90724039 280.71784975 -135.90595436 281.41631034 -135.90462935 282.13593641 C-135.88999372 290.02723276 -135.87347808 297.91852455 -135.85571289 305.80981445 C-135.85409815 306.52866328 -135.8524834 307.24751211 -135.85081973 307.98814424 C-135.8241446 319.69975284 -135.78634073 331.41130567 -135.74552432 343.12287233 C-135.7037988 355.19905686 -135.67737274 367.27521151 -135.66431636 379.35146111 C-135.65650583 386.11195379 -135.64129786 392.87226695 -135.60764503 399.63268471 C-135.57666575 405.96868422 -135.56411536 412.30444764 -135.56586266 418.6405201 C-135.56316211 420.96496178 -135.55357545 423.28940707 -135.53663635 425.6137886 C-135.51453478 428.78317372 -135.51703384 431.9516195 -135.52571106 435.12104797 C-135.51337757 436.04232697 -135.50104409 436.96360597 -135.48833686 437.91280252 C-135.53582889 443.42124038 -136.25803619 446.66600889 -140 451 C-145.26610361 453.79281473 -151.21418018 453.2886123 -157.03491211 453.2746582 C-158.13645126 453.27976913 -159.23799042 453.28488007 -160.37290955 453.29014587 C-164.00777648 453.30402593 -167.64245349 453.30308634 -171.27734375 453.30078125 C-173.80790782 453.30466887 -176.33847124 453.30900368 -178.86903381 453.31376648 C-184.17077011 453.32122516 -189.47243692 453.32107845 -194.77416992 453.31567383 C-200.8908705 453.30963405 -207.00734105 453.32194909 -213.1240024 453.3432439 C-219.02292743 453.36302077 -224.92178152 453.36602934 -230.82074165 453.36250877 C-233.32414859 453.36302185 -235.82755921 453.36825694 -238.33094597 453.37832069 C-241.83270824 453.39067107 -245.33393945 453.38390136 -248.83569336 453.37231445 C-249.86708435 453.37995819 -250.89847534 453.38760193 -251.96112061 453.39547729 C-257.73350694 453.35330818 -261.94090665 452.87626674 -267 450 C-269.22059004 446.66911494 -269.25123309 445.63701485 -269.2561264 441.75569534 C-269.2623585 440.66198726 -269.26859059 439.56827918 -269.27501154 438.44142842 C-269.27171257 437.23479818 -269.26841359 436.02816794 -269.26501465 434.78497314 C-269.27158655 432.86698162 -269.27158655 432.86698162 -269.27829123 430.9102428 C-269.29024627 427.35187237 -269.28976886 423.79359376 -269.28735614 420.23520803 C-269.28693743 416.39775654 -269.29803021 412.560337 -269.30781555 408.72290039 C-269.32330445 402.05886935 -269.33168868 395.39485954 -269.33552551 388.73081207 C-269.34128976 379.03579123 -269.35991206 369.34082667 -269.38196605 359.64583072 C-269.4177531 343.83778966 -269.4460166 328.02974536 -269.46826172 312.22167969 C-269.46959671 311.27482531 -269.4709317 310.32797093 -269.47230715 309.352424 C-269.48036991 303.60643236 -269.48825957 297.8604405 -269.4960928 292.11444855 C-269.50771292 283.59550439 -269.51952385 275.07656052 -269.53173828 266.55761719 C-269.53306902 265.62768996 -269.53439977 264.69776273 -269.53577083 263.73965588 C-269.55845679 248.05357771 -269.58878704 232.36752238 -269.62413073 216.68146777 C-269.64357442 207.90649099 -269.65909769 199.13154209 -269.66447449 190.35654449 C-269.69757385 138.82210983 -270.60785373 87.44955403 -273.97900391 36.00537109 C-274.19943579 32.59788117 -274.40534253 29.18975514 -274.609375 25.78125 C-274.6790448 24.78685913 -274.7487146 23.79246826 -274.82049561 22.76794434 C-275.17439172 16.69111453 -275.09890962 11.4981827 -271.875 6.125 C-266.29026693 2.77416016 -257.50127305 3.84606872 -251.18115234 3.83886719 C-250.1264827 3.83390228 -249.07181305 3.82893738 -247.98518372 3.82382202 C-244.51876155 3.80929238 -241.05238503 3.80241621 -237.5859375 3.796875 C-235.16793823 3.79111895 -232.74993896 3.78536128 -230.3319397 3.77960205 C-225.27337431 3.76912037 -220.2148247 3.7632582 -215.15625 3.75976562 C-208.67534084 3.75426617 -202.19464019 3.73019515 -195.71379662 3.70179367 C-190.7243895 3.68317784 -185.73503294 3.6779624 -180.74559402 3.67642975 C-178.35578895 3.67340376 -175.96598475 3.66537707 -173.57621384 3.65224457 C-170.23733259 3.63519563 -166.89896567 3.63706097 -163.56005859 3.64355469 C-162.57496811 3.6343399 -161.58987762 3.62512512 -160.57493591 3.6156311 C-155.32633401 3.64761767 -151.47936707 3.93747161 -147 7 C-144.2073118 11.86669704 -143.60927608 15.99744373 -143.5234375 21.55078125 C-143.50006821 22.59905342 -143.50006821 22.59905342 -143.47622681 23.66850281 C-143.42914033 25.88315717 -143.40113559 28.09750854 -143.375 30.3125 C-143.32627557 33.22538743 -143.26978493 36.13808236 -143.2109375 39.05078125 C-143.1916922 40.09203659 -143.1916922 40.09203659 -143.17205811 41.15432739 C-143.05672831 46.48462178 -142.63721866 51.70899589 -142 57 C-141.37351562 56.278125 -140.74703125 55.55625 -140.1015625 54.8125 C-138.87566406 53.4203125 -138.87566406 53.4203125 -137.625 52 C-136.40683594 50.6078125 -136.40683594 50.6078125 -135.1640625 49.1875 C-134.44992187 48.465625 -133.73578125 47.74375 -133 47 C-132.34 47 -131.68 47 -131 47 C-131 46.34 -131 45.68 -131 45 C-128.97551224 43.22439979 -126.94734108 41.57167896 -124.8125 39.9375 C-124.17320557 39.44507813 -123.53391113 38.95265625 -122.87524414 38.4453125 C-120.92430537 36.95337563 -118.96371715 35.47506185 -117 34 C-115.98164063 33.22785156 -114.96328125 32.45570313 -113.9140625 31.66015625 C-87.22731668 12.29300345 -55.19090625 2.15147425 -22.375 0.4375 C-21.58085693 0.3957666 -20.78671387 0.3540332 -19.96850586 0.31103516 C-13.30317842 -0.01876495 -6.67335106 -0.15979518 0 0 Z M-232 42 C-237.31249355 50.24352447 -239.33449433 58.79599249 -237.5390625 68.48828125 C-235.29130882 76.990079 -231.17954758 84.27316701 -223.65625 89.07421875 C-215.7312688 93.50398419 -206.78341404 94.1413899 -198.0625 91.9375 C-190.23920927 89.36183198 -184.02140758 84.3689627 -179.99609375 77.16796875 C-175.62421646 67.65270642 -174.7029922 59.4259673 -177.953125 49.4609375 C-181.84826292 40.30445658 -189.06717919 34.82573678 -198 31 C-211.10462809 27.06861157 -223.39483982 31.90637968 -232 42 Z M-228.75 110.25 C-235.16530131 118.09092382 -238.89995743 125.56049382 -238 136 C-235.96477426 145.3145003 -232.05849673 152.97234768 -223.9140625 158.38671875 C-215.66909936 163.04285489 -206.75021308 164.31321589 -197.5625 161.8125 C-187.89708902 158.35609899 -182.36689787 152.36524936 -178.015625 143.3046875 C-174.75697028 135.91004794 -175.07752029 127.89094922 -177.5 120.25 C-180.0462583 113.96619827 -184.31061244 109.28490479 -190.0625 105.72265625 C-192.16685441 104.70682786 -192.16685441 104.70682786 -195 106 C-195.08117951 108.41734542 -195.14056926 110.83194949 -195.1875 113.25 C-195.21263672 113.93191406 -195.23777344 114.61382812 -195.26367188 115.31640625 C-195.32701437 119.66592398 -194.81342514 121.73785136 -192 125 C-190.75939361 129.31856656 -190.73788945 133.05640204 -191.9375 137.375 C-194.84782605 141.07905133 -197.52018962 141.67808874 -202 143 C-203.60951543 139.78096915 -203.24234748 136.25161168 -203.31640625 132.7109375 C-203.33718735 131.89251373 -203.35796844 131.07408997 -203.37937927 130.23086548 C-203.44484812 127.61233034 -203.50374726 124.99369361 -203.5625 122.375 C-203.60568776 120.60155193 -203.64930214 118.82811419 -203.69335938 117.0546875 C-203.80052676 112.70322954 -203.90180169 108.35166923 -204 104 C-206.06228981 103.95414198 -208.12487765 103.92157312 -210.1875 103.89453125 C-211.33605469 103.87495361 -212.48460937 103.85537598 -213.66796875 103.83520508 C-219.7771641 104.13735242 -224.08799654 106.43563354 -228.75 110.25 Z M-234.40452576 181.80093384 C-237.99743991 187.78346895 -238.88217298 193.35442852 -237.57421875 200.2421875 C-235.97744795 206.06109457 -233.28855272 209.93504331 -228 213 C-227.01 213 -226.02 213 -225 213 C-225 213.66 -225 214.32 -225 215 C-226.0828125 215.0928125 -226.0828125 215.0928125 -227.1875 215.1875 C-231.02483999 216.29606488 -232.49461179 217.90123038 -235 221 C-238.44339889 227.54382977 -238.88412575 233.53079078 -236.75 240.625 C-234.58237665 246.58089966 -231.63692174 250.02495797 -226 253 C-226.63808594 253.06058594 -227.27617187 253.12117188 -227.93359375 253.18359375 C-229.17302734 253.30927734 -229.17302734 253.30927734 -230.4375 253.4375 C-231.26121094 253.51871094 -232.08492188 253.59992188 -232.93359375 253.68359375 C-234.98662025 253.78930815 -234.98662025 253.78930815 -236 255 C-236.07319621 257.69654854 -236.09242537 260.36691458 -236.0625 263.0625 C-236.05798828 263.82111328 -236.05347656 264.57972656 -236.04882812 265.36132812 C-236.0370068 267.24091871 -236.01907078 269.12046899 -236 271 C-229.23530286 271.11530734 -222.55539678 270.93691512 -215.8125 270.4375 C-210.79320832 270.07654368 -206.05292472 270.00970075 -201.06640625 270.73828125 C-193.97063348 271.63698971 -186.00808743 271.42857167 -179 270 C-176.58877632 268.03464283 -176.58877632 268.03464283 -176.8046875 264.3046875 C-176.817991 262.82799892 -176.84185165 261.35137642 -176.875 259.875 C-176.88402344 259.12089844 -176.89304687 258.36679687 -176.90234375 257.58984375 C-176.9259313 255.72642746 -176.96180281 253.86317407 -177 252 C-178.08941895 251.98018066 -179.17883789 251.96036133 -180.30126953 251.93994141 C-184.36057833 251.86360942 -188.41954153 251.77493539 -192.47851562 251.68261719 C-194.23202671 251.64444112 -195.98561308 251.60956876 -197.73925781 251.578125 C-200.26654886 251.53222641 -202.79332678 251.4742743 -205.3203125 251.4140625 C-206.09867462 251.40251129 -206.87703674 251.39096008 -207.6789856 251.37905884 C-212.12943572 251.25961089 -215.83751566 250.76040564 -220 249 C-222.45452057 246.09920297 -222.42165714 242.5688463 -222.3125 238.8984375 C-222 237 -222 237 -220.375 234.625 C-215.21867863 231.09699064 -210.06644989 230.71648812 -203.9765625 230.8046875 C-203.23038666 230.8075174 -202.48421082 230.81034729 -201.71542358 230.81326294 C-199.35178012 230.82438313 -196.98852732 230.84947179 -194.625 230.875 C-193.01432842 230.88504038 -191.40365085 230.89416438 -189.79296875 230.90234375 C-185.86183056 230.9242956 -181.93098133 230.95876815 -178 231 C-177.10362674 226.84303563 -176.86608589 223.0109465 -176.875 218.75 C-176.87242187 217.50734375 -176.86984375 216.2646875 -176.8671875 214.984375 C-176.65841892 212.11659087 -176.65841892 212.11659087 -178 211 C-180.90862179 210.88914993 -183.79749993 210.83835256 -186.70703125 210.82421875 C-188.50847519 210.80101736 -190.30990751 210.77689989 -192.11132812 210.75195312 C-194.96207396 210.71683755 -197.81239433 210.6875005 -200.66333008 210.67407227 C-203.40759337 210.65860291 -206.15059962 210.61839491 -208.89453125 210.57421875 C-210.17128471 210.57708138 -210.17128471 210.57708138 -211.47383118 210.58000183 C-217.38178585 210.45780483 -217.38178585 210.45780483 -220.5065918 208.14379883 C-222.49735361 205.28604512 -223 203.49331198 -223 200 C-220.00763359 194.33587786 -220.00763359 194.33587786 -216 193 C-213.05282827 192.84565842 -210.12501135 192.7424397 -207.17578125 192.68359375 C-206.31438034 192.66281265 -205.45297943 192.64203156 -204.56547546 192.62062073 C-201.81456456 192.55525091 -199.06355844 192.49629868 -196.3125 192.4375 C-194.44725579 192.39430283 -192.5820212 192.35068815 -190.71679688 192.30664062 C-186.14462876 192.19958237 -181.5723649 192.09827946 -177 192 C-177.495 190.515 -177.495 190.515 -178 189 C-177.76990234 188.09507812 -177.76990234 188.09507812 -177.53515625 187.171875 C-176.85034112 184.39262529 -177.13335683 182.08866957 -177.4375 179.25 C-177.59025391 177.77273438 -177.59025391 177.77273438 -177.74609375 176.265625 C-177.82988281 175.51796875 -177.91367187 174.7703125 -178 174 C-184.38599733 173.84705375 -190.77151734 173.74245412 -197.15893555 173.67041016 C-199.32871145 173.64035741 -201.49836708 173.59950263 -203.66772461 173.54736328 C-206.79831712 173.47404056 -209.92729507 173.44042784 -213.05859375 173.4140625 C-214.01833603 173.38309479 -214.97807831 173.35212708 -215.96690369 173.32022095 C-223.54627591 173.31648851 -229.62372194 175.67081389 -234.40452576 181.80093384 Z M-231 292 C-238.21475622 301.11522859 -238.85644181 310.81135629 -238 322 C-236.36820125 329.79751934 -231.90338942 335.76914862 -226 341 C-217.56752216 346.44127804 -208.71975015 346.88812418 -199 346 C-190.92395604 344.11179817 -184.90253077 338.45165821 -179.6875 332.25 C-175.14778714 323.50684931 -173.65335843 314.62539892 -176.125 305.0625 C-178.69166147 297.22996499 -183.13867651 290.62393539 -190 286 C-191.32 286 -192.64 286 -194 286 C-194.680625 285.2884375 -194.680625 285.2884375 -195.375 284.5625 C-198.89175033 281.1810093 -204.91026757 281.70681702 -209.578125 281.79296875 C-218.21109344 282.53094831 -224.87046967 285.91892445 -231 292 Z M-233.51953125 364.91796875 C-237.52814599 370.55541375 -238.69554376 377.06867316 -237.5703125 383.83203125 C-236.1876499 389.08804318 -234.35590225 393.39673252 -229.75 396.5 C-228.8425 396.995 -227.935 397.49 -227 398 C-228 399 -228 399 -231.5 399.4375 C-232.655 399.623125 -233.81 399.80875 -235 400 C-236.64072259 403.28144519 -236.14274434 406.89789996 -236.125 410.5 C-236.12886719 411.28503906 -236.13273437 412.07007813 -236.13671875 412.87890625 C-236.23807619 417.07270323 -236.23807619 417.07270323 -235 421 C-216.19 421 -197.38 421 -178 421 C-177.05862745 418.17588235 -176.88274618 416.47081968 -176.90234375 413.55078125 C-176.90556641 412.70322266 -176.90878906 411.85566406 -176.91210938 410.98242188 C-176.92048828 410.10134766 -176.92886719 409.22027344 -176.9375 408.3125 C-176.94201172 407.41982422 -176.94652344 406.52714844 -176.95117188 405.60742188 C-176.96295017 403.40488013 -176.97939836 401.20247401 -177 399 C-179.62911411 397.68544295 -181.5549718 397.9036751 -184.49609375 397.9375 C-186.17155273 397.94910156 -186.17155273 397.94910156 -187.88085938 397.9609375 C-190.21680115 397.98659309 -192.55273884 398.01262296 -194.88867188 398.0390625 C-214.74407786 398.1751361 -214.74407786 398.1751361 -220 395 C-222.30876536 391.7677285 -222.46684256 388.89035463 -222 385 C-220.375 381.6875 -220.375 381.6875 -218 379 C-213.29715925 377.81796762 -208.57796683 377.86847811 -203.7578125 377.90234375 C-202.98944061 377.9037587 -202.22106873 377.90517365 -201.42941284 377.90663147 C-198.99456761 377.91219317 -196.55981706 377.9247384 -194.125 377.9375 C-192.46614717 377.94251996 -190.80729288 377.94708199 -189.1484375 377.95117188 C-185.09889322 377.96129574 -181.04955159 377.9808783 -177 378 C-177 371.07 -177 364.14 -177 357 C-182.97781594 356.93090709 -188.95423095 356.87123967 -194.93212891 356.83520508 C-196.9631013 356.82017401 -198.99404154 356.79974353 -201.02490234 356.77368164 C-203.95418259 356.73704768 -206.88303144 356.72021649 -209.8125 356.70703125 C-210.71178223 356.69154739 -211.61106445 356.67606354 -212.53759766 356.66011047 C-220.95692071 356.65789289 -227.67740563 358.56783221 -233.51953125 364.91796875 Z " fill="#000000" transform="translate(525,228)"/>
<path d="M0 0 C4.004793 2.0023965 6.6587028 4.17998877 9 8 C10.84938383 13.5481515 10.77410144 18.97285735 8.4375 24.375 C6.60822656 27.56352522 4.73125712 29.4046582 1.125 30.6015625 C-4.53310334 31.66245688 -9.88691026 31.5762972 -15.4375 30.0625 C-20.1657807 26.25681066 -21.73735652 21.21370932 -22.4375 15.3125 C-21.73897462 10.02366496 -19.96669185 6.62561236 -15.9375 3.1875 C-10.75004335 -0.67549963 -6.35849109 -0.65560713 0 0 Z " fill="#010202" transform="translate(324,274)"/>
<path d="M0 0 C3.62554323 2.89329065 5.76930558 5.6594745 6.421875 10.2578125 C6.51179049 16.03038723 5.97829727 19.33100355 2.0859375 23.890625 C1.6115625 24.468125 1.1371875 25.045625 0.6484375 25.640625 C-3.12723614 28.66116392 -7.06201275 29.35806736 -11.86328125 29.1953125 C-16.41619167 28.51888009 -19.51081301 26.49231381 -22.4609375 23.125 C-25.86898587 18.26182986 -26.75362214 14.76754248 -25.9140625 8.890625 C-23.95883132 3.52739311 -20.96502195 0.62656137 -15.9140625 -2.109375 C-10.6874841 -3.88771288 -4.73229663 -2.7428005 0 0 Z " fill="#020202" transform="translate(327.9140625,529.109375)"/>
<path d="M0 0 C2.57690799 7.41258717 2.86493863 14.65859475 0 22 C-3.40307525 23.10099493 -4.79342609 23.08100938 -8.1875 21.75 C-11.81810544 19.49095662 -12.79801521 17.82347644 -13.8125 13.6875 C-14.03197958 9.3710683 -13.38067929 7.57101893 -11 4 C-4.44247788 -2.22123894 -4.44247788 -2.22123894 0 0 Z " fill="#030403" transform="translate(313,348)"/>
<path d="M0 0 C0.33 0 0.66 0 1 0 C1 3.3 1 6.6 1 10 C0.67 10 0.34 10 0 10 C0 6.7 0 3.4 0 0 Z " fill="#17241F" transform="translate(254,476)"/>
<path d="M0 0 C0.33 0 0.66 0 1 0 C1 2.64 1 5.28 1 8 C0.67 8 0.34 8 0 8 C0 5.36 0 2.72 0 0 Z " fill="#131413" transform="translate(346,588)"/>
<path d="M0 0 C0.33 0 0.66 0 1 0 C1 1.65 1 3.3 1 5 C0.67 5 0.34 5 0 5 C0 3.35 0 1.7 0 0 Z " fill="#111212" transform="translate(346,597)"/>
<path d="M0 0 C0.33 0 0.66 0 1 0 C1 1.65 1 3.3 1 5 C0.67 5 0.34 5 0 5 C0 3.35 0 1.7 0 0 Z " fill="#182420" transform="translate(254,496)"/>
<path d="M0 0 C1 4 1 4 1 4 Z " fill="#121514" transform="translate(346,632)"/>
<path d="M0 0 C1 4 1 4 1 4 Z " fill="#192621" transform="translate(254,586)"/>
<path d="M0 0 C1 4 1 4 1 4 Z " fill="#18251F" transform="translate(254,514)"/>
<path d="M0 0 C1 4 1 4 1 4 Z " fill="#293B34" transform="translate(50,502)"/>
<path d="M0 0 C1 4 1 4 1 4 Z " fill="#111413" transform="translate(346,486)"/>
<path d="M0 0 C1 4 1 4 1 4 Z " fill="#18241F" transform="translate(254,434)"/>
<path d="M0 0 C0.66 0 1.32 0 2 0 C1.67 0.66 1.34 1.32 1 2 C0.67 1.34 0.34 0.68 0 0 Z " fill="#283B33" transform="translate(107,665)"/>
<path d="" fill="#1D2E28" transform="translate(0,0)"/>
<path d="M0 0 C3 1 3 1 3 1 Z " fill="#161A16" transform="translate(317,647)"/>
<path d="M0 0 C0.33 0.66 0.66 1.32 1 2 C0.34 1.67 -0.32 1.34 -1 1 C-0.67 0.67 -0.34 0.34 0 0 Z " fill="#171A17" transform="translate(338,646)"/>
<path d="" fill="#1B2C26" transform="translate(0,0)"/>
<path d="" fill="#121613" transform="translate(0,0)"/>
<path d="M0 0 C0.99 0.495 0.99 0.495 2 1 C1.01 1.495 1.01 1.495 0 2 C0 1.34 0 0.68 0 0 Z " fill="#131312" transform="translate(298,606)"/>
<path d="" fill="#121411" transform="translate(0,0)"/>
<path d="M0 0 C0.33 0.66 0.66 1.32 1 2 C0.34 1.67 -0.32 1.34 -1 1 C-0.67 0.67 -0.34 0.34 0 0 Z " fill="#283B33" transform="translate(68,581)"/>
<path d="" fill="#192520" transform="translate(0,0)"/>
<path d="" fill="#17251F" transform="translate(0,0)"/>
<path d="" fill="#18241F" transform="translate(0,0)"/>
<path d="" fill="#181B18" transform="translate(0,0)"/>
<path d="M0 0 C3 1 3 1 3 1 Z " fill="#131311" transform="translate(310,333)"/>
<path d="M0 0 C0.99 0.495 0.99 0.495 2 1 C1.01 1.495 1.01 1.495 0 2 C0 1.34 0 0.68 0 0 Z " fill="#273B33" transform="translate(249,102)"/>
<path d="M0 0 C3 1 3 1 3 1 Z " fill="#21352F" transform="translate(599,78)"/>
<path d="M0 0 C3 1 3 1 3 1 Z " fill="#22332C" transform="translate(551,62)"/>
<path d="M0 0 C2 1 2 1 2 1 Z " fill="#253830" transform="translate(355,843)"/>
<path d="M0 0 C2 1 2 1 2 1 Z " fill="#283932" transform="translate(777,685)"/>
<path d="" fill="#2A3A34" transform="translate(0,0)"/>
<path d="M0 0 C2 1 2 1 2 1 Z " fill="#151915" transform="translate(302,647)"/>
<path d="" fill="#1C2C26" transform="translate(0,0)"/>
<path d="" fill="#2B3F37" transform="translate(0,0)"/>
<path d="" fill="#141615" transform="translate(0,0)"/>
<path d="" fill="#293A32" transform="translate(0,0)"/>
<path d="M0 0 C2 1 2 1 2 1 Z " fill="#141B17" transform="translate(499,625)"/>
<path d="" fill="#1A2B24" transform="translate(0,0)"/>
<path d="" fill="#1B2A25" transform="translate(0,0)"/>
<path d="" fill="#283931" transform="translate(0,0)"/>
<path d="" fill="#1A2A25" transform="translate(0,0)"/>
<path d="M0 0 C2 1 2 1 2 1 Z " fill="#131513" transform="translate(319,586)"/>
<path d="" fill="#182622" transform="translate(0,0)"/>
<path d="" fill="#192621" transform="translate(0,0)"/>
<path d="" fill="#131613" transform="translate(0,0)"/>
<path d="" fill="#141612" transform="translate(0,0)"/>
<path d="" fill="#18251F" transform="translate(0,0)"/>
<path d="" fill="#141614" transform="translate(0,0)"/>
<path d="" fill="#192420" transform="translate(0,0)"/>
<path d="" fill="#182420" transform="translate(0,0)"/>
<path d="" fill="#18241F" transform="translate(0,0)"/>
<path d="" fill="#131311" transform="translate(0,0)"/>
<path d="" fill="#18241F" transform="translate(0,0)"/>
<path d="" fill="#171B18" transform="translate(0,0)"/>
<path d="" fill="#181918" transform="translate(0,0)"/>
<path d="" fill="#273A32" transform="translate(0,0)"/>
<path d="M0 0 C2 1 2 1 2 1 Z " fill="#141816" transform="translate(498,398)"/>
<path d="" fill="#17231E" transform="translate(0,0)"/>
<path d="" fill="#131411" transform="translate(0,0)"/>
<path d="M0 0 C2 1 2 1 2 1 Z " fill="#151614" transform="translate(463,354)"/>
<path d="M0 0 C2 1 2 1 2 1 Z " fill="#161A16" transform="translate(440,353)"/>
<path d="M0 0 C2 1 2 1 2 1 Z " fill="#131614" transform="translate(325,318)"/>
<path d="M0 0 C2 1 2 1 2 1 Z " fill="#131614" transform="translate(322,318)"/>
<path d="M0 0 C2 1 2 1 2 1 Z " fill="#131615" transform="translate(310,318)"/>
<path d="" fill="#1C2821" transform="translate(0,0)"/>
<path d="" fill="#253531" transform="translate(0,0)"/>
<path d="M0 0 C2 1 2 1 2 1 Z " fill="#141513" transform="translate(320,306)"/>
<path d="" fill="#1B2922" transform="translate(0,0)"/>
<path d="" fill="#14201B" transform="translate(0,0)"/>
<path d="" fill="#1D2A25" transform="translate(0,0)"/>
<path d="M0 0 C2 1 2 1 2 1 Z " fill="#20302A" transform="translate(346,230)"/>
<path d="M0 0 C2 1 2 1 2 1 Z " fill="#283D34" transform="translate(219,121)"/>
<path d="M0 0 C2 1 2 1 2 1 Z " fill="#2A403A" transform="translate(218,118)"/>
<path d="M0 0 C2 1 2 1 2 1 Z " fill="#273B33" transform="translate(281,86)"/>
<path d="M0 0 C2 1 2 1 2 1 Z " fill="#263B31" transform="translate(521,55)"/>
<path d="" fill="#6D7F75" transform="translate(0,0)"/>
<path d="" fill="#25362F" transform="translate(0,0)"/>
<path d="" fill="#243831" transform="translate(0,0)"/>
<path d="" fill="#24362E" transform="translate(0,0)"/>
<path d="" fill="#263932" transform="translate(0,0)"/>
<path d="" fill="#23362F" transform="translate(0,0)"/>
<path d="" fill="#253831" transform="translate(0,0)"/>
<path d="" fill="#243731" transform="translate(0,0)"/>
<path d="" fill="#253932" transform="translate(0,0)"/>
<path d="" fill="#24392E" transform="translate(0,0)"/>
<path d="" fill="#263A31" transform="translate(0,0)"/>
<path d="" fill="#263A34" transform="translate(0,0)"/>
<path d="" fill="#253B33" transform="translate(0,0)"/>
<path d="" fill="#283931" transform="translate(0,0)"/>
<path d="" fill="#283831" transform="translate(0,0)"/>
<path d="" fill="#2B3B34" transform="translate(0,0)"/>
<path d="" fill="#293C32" transform="translate(0,0)"/>
<path d="" fill="#283C34" transform="translate(0,0)"/>
<path d="" fill="#263933" transform="translate(0,0)"/>
<path d="" fill="#263830" transform="translate(0,0)"/>
<path d="" fill="#283A31" transform="translate(0,0)"/>
<path d="" fill="#24352D" transform="translate(0,0)"/>
<path d="" fill="#283A32" transform="translate(0,0)"/>
<path d="" fill="#2B3E36" transform="translate(0,0)"/>
<path d="" fill="#253830" transform="translate(0,0)"/>
<path d="" fill="#273C35" transform="translate(0,0)"/>
<path d="" fill="#293A32" transform="translate(0,0)"/>
<path d="" fill="#263932" transform="translate(0,0)"/>
<path d="" fill="#2E453A" transform="translate(0,0)"/>
<path d="" fill="#293A32" transform="translate(0,0)"/>
<path d="" fill="#293B33" transform="translate(0,0)"/>
<path d="" fill="#2B3E37" transform="translate(0,0)"/>
<path d="" fill="#283B32" transform="translate(0,0)"/>
<path d="" fill="#1E312B" transform="translate(0,0)"/>
<path d="" fill="#1C2F27" transform="translate(0,0)"/>
<path d="" fill="#1E2F29" transform="translate(0,0)"/>
<path d="" fill="#22372F" transform="translate(0,0)"/>
<path d="" fill="#283C35" transform="translate(0,0)"/>
<path d="" fill="#1C2D28" transform="translate(0,0)"/>
<path d="" fill="#20322B" transform="translate(0,0)"/>
<path d="" fill="#21322D" transform="translate(0,0)"/>
<path d="" fill="#2C4038" transform="translate(0,0)"/>
<path d="" fill="#293E37" transform="translate(0,0)"/>
<path d="" fill="#26302E" transform="translate(0,0)"/>
<path d="" fill="#1E3028" transform="translate(0,0)"/>
<path d="" fill="#1D2D27" transform="translate(0,0)"/>
<path d="" fill="#1E2D27" transform="translate(0,0)"/>
<path d="" fill="#181A16" transform="translate(0,0)"/>
<path d="" fill="#171B19" transform="translate(0,0)"/>
<path d="" fill="#161B17" transform="translate(0,0)"/>
<path d="" fill="#171B18" transform="translate(0,0)"/>
<path d="" fill="#161C18" transform="translate(0,0)"/>
<path d="" fill="#191D1A" transform="translate(0,0)"/>
<path d="" fill="#161B16" transform="translate(0,0)"/>
<path d="" fill="#293F36" transform="translate(0,0)"/>
<path d="" fill="#273B33" transform="translate(0,0)"/>
<path d="" fill="#2B3E39" transform="translate(0,0)"/>
<path d="" fill="#141615" transform="translate(0,0)"/>
<path d="" fill="#1B2E26" transform="translate(0,0)"/>
<path d="" fill="#1C2A24" transform="translate(0,0)"/>
<path d="" fill="#131514" transform="translate(0,0)"/>
<path d="" fill="#1B2C27" transform="translate(0,0)"/>
<path d="" fill="#2B3E37" transform="translate(0,0)"/>
<path d="" fill="#283C31" transform="translate(0,0)"/>
<path d="" fill="#2A3D37" transform="translate(0,0)"/>
<path d="" fill="#2A3E35" transform="translate(0,0)"/>
<path d="" fill="#2A3F36" transform="translate(0,0)"/>
<path d="" fill="#121210" transform="translate(0,0)"/>
<path d="" fill="#293934" transform="translate(0,0)"/>
<path d="" fill="#27372F" transform="translate(0,0)"/>
<path d="" fill="#1B2C23" transform="translate(0,0)"/>
<path d="" fill="#141711" transform="translate(0,0)"/>
<path d="" fill="#141514" transform="translate(0,0)"/>
<path d="" fill="#121412" transform="translate(0,0)"/>
<path d="" fill="#131613" transform="translate(0,0)"/>
<path d="" fill="#1B2B24" transform="translate(0,0)"/>
<path d="" fill="#273B32" transform="translate(0,0)"/>
<path d="" fill="#172824" transform="translate(0,0)"/>
<path d="" fill="#293B33" transform="translate(0,0)"/>
<path d="" fill="#1A2A22" transform="translate(0,0)"/>
<path d="" fill="#2A3D35" transform="translate(0,0)"/>
<path d="" fill="#1A2924" transform="translate(0,0)"/>
<path d="" fill="#243431" transform="translate(0,0)"/>
<path d="" fill="#192721" transform="translate(0,0)"/>
<path d="" fill="#1A2822" transform="translate(0,0)"/>
<path d="" fill="#1A2721" transform="translate(0,0)"/>
<path d="" fill="#2A3C34" transform="translate(0,0)"/>
<path d="" fill="#161715" transform="translate(0,0)"/>
<path d="" fill="#182821" transform="translate(0,0)"/>
<path d="" fill="#293C33" transform="translate(0,0)"/>
<path d="" fill="#2A3935" transform="translate(0,0)"/>
<path d="" fill="#151615" transform="translate(0,0)"/>
<path d="" fill="#283E35" transform="translate(0,0)"/>
<path d="" fill="#182621" transform="translate(0,0)"/>
<path d="" fill="#283933" transform="translate(0,0)"/>
<path d="" fill="#141714" transform="translate(0,0)"/>
<path d="" fill="#1C2822" transform="translate(0,0)"/>
<path d="" fill="#131711" transform="translate(0,0)"/>
<path d="" fill="#171815" transform="translate(0,0)"/>
<path d="" fill="#182723" transform="translate(0,0)"/>
<path d="" fill="#151717" transform="translate(0,0)"/>
<path d="" fill="#151614" transform="translate(0,0)"/>
<path d="" fill="#182721" transform="translate(0,0)"/>
<path d="" fill="#172520" transform="translate(0,0)"/>
<path d="" fill="#151813" transform="translate(0,0)"/>
<path d="" fill="#263930" transform="translate(0,0)"/>
<path d="" fill="#151815" transform="translate(0,0)"/>
<path d="" fill="#182621" transform="translate(0,0)"/>
<path d="" fill="#18261E" transform="translate(0,0)"/>
<path d="" fill="#141614" transform="translate(0,0)"/>
<path d="" fill="#131412" transform="translate(0,0)"/>
<path d="" fill="#151413" transform="translate(0,0)"/>
<path d="" fill="#172521" transform="translate(0,0)"/>
<path d="" fill="#18261F" transform="translate(0,0)"/>
<path d="" fill="#161512" transform="translate(0,0)"/>
<path d="" fill="#151214" transform="translate(0,0)"/>
<path d="" fill="#17261F" transform="translate(0,0)"/>
<path d="" fill="#18261F" transform="translate(0,0)"/>
<path d="" fill="#141612" transform="translate(0,0)"/>
<path d="" fill="#121612" transform="translate(0,0)"/>
<path d="" fill="#131212" transform="translate(0,0)"/>
<path d="" fill="#111310" transform="translate(0,0)"/>
<path d="" fill="#18271F" transform="translate(0,0)"/>
<path d="" fill="#151412" transform="translate(0,0)"/>
<path d="" fill="#19261F" transform="translate(0,0)"/>
<path d="" fill="#171714" transform="translate(0,0)"/>
<path d="" fill="#182521" transform="translate(0,0)"/>
<path d="" fill="#151715" transform="translate(0,0)"/>
<path d="" fill="#141513" transform="translate(0,0)"/>
<path d="" fill="#121310" transform="translate(0,0)"/>
<path d="" fill="#283D34" transform="translate(0,0)"/>
<path d="" fill="#182521" transform="translate(0,0)"/>
<path d="" fill="#18261F" transform="translate(0,0)"/>
<path d="" fill="#14231C" transform="translate(0,0)"/>
<path d="" fill="#182621" transform="translate(0,0)"/>
<path d="" fill="#121410" transform="translate(0,0)"/>
<path d="" fill="#141613" transform="translate(0,0)"/>
<path d="" fill="#151814" transform="translate(0,0)"/>
<path d="" fill="#18261F" transform="translate(0,0)"/>
<path d="" fill="#171413" transform="translate(0,0)"/>
<path d="" fill="#172521" transform="translate(0,0)"/>
<path d="" fill="#182621" transform="translate(0,0)"/>
<path d="" fill="#1A271E" transform="translate(0,0)"/>
<path d="" fill="#151716" transform="translate(0,0)"/>
<path d="" fill="#182521" transform="translate(0,0)"/>
<path d="" fill="#192621" transform="translate(0,0)"/>
<path d="" fill="#182520" transform="translate(0,0)"/>
<path d="" fill="#172520" transform="translate(0,0)"/>
<path d="" fill="#1B1C1C" transform="translate(0,0)"/>
<path d="" fill="#131511" transform="translate(0,0)"/>
<path d="" fill="#111411" transform="translate(0,0)"/>
<path d="" fill="#191D1A" transform="translate(0,0)"/>
<path d="" fill="#182620" transform="translate(0,0)"/>
<path d="" fill="#141512" transform="translate(0,0)"/>
<path d="" fill="#141613" transform="translate(0,0)"/>
<path d="" fill="#151313" transform="translate(0,0)"/>
<path d="" fill="#161413" transform="translate(0,0)"/>
<path d="" fill="#151714" transform="translate(0,0)"/>
<path d="" fill="#141513" transform="translate(0,0)"/>
<path d="" fill="#121413" transform="translate(0,0)"/>
<path d="" fill="#182621" transform="translate(0,0)"/>
<path d="" fill="#172620" transform="translate(0,0)"/>
<path d="" fill="#151714" transform="translate(0,0)"/>
<path d="" fill="#17251F" transform="translate(0,0)"/>
<path d="" fill="#121311" transform="translate(0,0)"/>
<path d="" fill="#131510" transform="translate(0,0)"/>
<path d="" fill="#19251D" transform="translate(0,0)"/>
<path d="" fill="#16231F" transform="translate(0,0)"/>
<path d="" fill="#273A32" transform="translate(0,0)"/>
<path d="" fill="#162520" transform="translate(0,0)"/>
<path d="" fill="#19241E" transform="translate(0,0)"/>
<path d="" fill="#121310" transform="translate(0,0)"/>
<path d="" fill="#121512" transform="translate(0,0)"/>
<path d="" fill="#16241E" transform="translate(0,0)"/>
<path d="" fill="#161714" transform="translate(0,0)"/>
<path d="" fill="#17241F" transform="translate(0,0)"/>
<path d="" fill="#141513" transform="translate(0,0)"/>
<path d="" fill="#131512" transform="translate(0,0)"/>
<path d="" fill="#141513" transform="translate(0,0)"/>
<path d="" fill="#141612" transform="translate(0,0)"/>
<path d="" fill="#121513" transform="translate(0,0)"/>
<path d="" fill="#131513" transform="translate(0,0)"/>
<path d="" fill="#1F2B28" transform="translate(0,0)"/>
<path d="" fill="#121413" transform="translate(0,0)"/>
<path d="" fill="#141714" transform="translate(0,0)"/>
<path d="" fill="#141512" transform="translate(0,0)"/>
<path d="" fill="#111412" transform="translate(0,0)"/>
<path d="" fill="#161A15" transform="translate(0,0)"/>
<path d="" fill="#151915" transform="translate(0,0)"/>
<path d="" fill="#161816" transform="translate(0,0)"/>
<path d="" fill="#151613" transform="translate(0,0)"/>
<path d="" fill="#13120F" transform="translate(0,0)"/>
<path d="" fill="#151311" transform="translate(0,0)"/>
<path d="" fill="#131412" transform="translate(0,0)"/>
<path d="" fill="#141312" transform="translate(0,0)"/>
<path d="" fill="#131511" transform="translate(0,0)"/>
<path d="" fill="#22322B" transform="translate(0,0)"/>
<path d="" fill="#141611" transform="translate(0,0)"/>
<path d="" fill="#182522" transform="translate(0,0)"/>
<path d="" fill="#111310" transform="translate(0,0)"/>
<path d="" fill="#1A2521" transform="translate(0,0)"/>
<path d="" fill="#1B2723" transform="translate(0,0)"/>
<path d="" fill="#15211D" transform="translate(0,0)"/>
<path d="" fill="#283932" transform="translate(0,0)"/>
<path d="" fill="#1B2623" transform="translate(0,0)"/>
<path d="" fill="#131513" transform="translate(0,0)"/>
<path d="" fill="#293C34" transform="translate(0,0)"/>
<path d="" fill="#293B33" transform="translate(0,0)"/>
<path d="" fill="#2A3E36" transform="translate(0,0)"/>
<path d="" fill="#14201B" transform="translate(0,0)"/>
<path d="" fill="#141413" transform="translate(0,0)"/>
<path d="" fill="#131613" transform="translate(0,0)"/>
<path d="" fill="#263A33" transform="translate(0,0)"/>
<path d="" fill="#141F1A" transform="translate(0,0)"/>
<path d="" fill="#2C4138" transform="translate(0,0)"/>
<path d="" fill="#131510" transform="translate(0,0)"/>
<path d="" fill="#151311" transform="translate(0,0)"/>
<path d="" fill="#131715" transform="translate(0,0)"/>
<path d="" fill="#2B4138" transform="translate(0,0)"/>
<path d="" fill="#14211A" transform="translate(0,0)"/>
<path d="" fill="#111D1B" transform="translate(0,0)"/>
<path d="" fill="#121614" transform="translate(0,0)"/>
<path d="" fill="#141814" transform="translate(0,0)"/>
<path d="" fill="#1C2A26" transform="translate(0,0)"/>
<path d="" fill="#141715" transform="translate(0,0)"/>
<path d="" fill="#283831" transform="translate(0,0)"/>
<path d="" fill="#131A16" transform="translate(0,0)"/>
<path d="" fill="#131613" transform="translate(0,0)"/>
<path d="" fill="#111813" transform="translate(0,0)"/>
<path d="" fill="#161B16" transform="translate(0,0)"/>
<path d="" fill="#141816" transform="translate(0,0)"/>
<path d="" fill="#161D17" transform="translate(0,0)"/>
<path d="" fill="#253A31" transform="translate(0,0)"/>
<path d="" fill="#14221E" transform="translate(0,0)"/>
<path d="" fill="#12221C" transform="translate(0,0)"/>
<path d="" fill="#16211D" transform="translate(0,0)"/>
<path d="" fill="#16231E" transform="translate(0,0)"/>
<path d="" fill="#25362E" transform="translate(0,0)"/>
<path d="" fill="#162321" transform="translate(0,0)"/>
<path d="" fill="#283931" transform="translate(0,0)"/>
<path d="" fill="#152521" transform="translate(0,0)"/>
<path d="" fill="#19241E" transform="translate(0,0)"/>
<path d="" fill="#263931" transform="translate(0,0)"/>
<path d="" fill="#1F322C" transform="translate(0,0)"/>
<path d="" fill="#142420" transform="translate(0,0)"/>
<path d="" fill="#1B2620" transform="translate(0,0)"/>
<path d="" fill="#1C2625" transform="translate(0,0)"/>
<path d="" fill="#1E3028" transform="translate(0,0)"/>
<path d="" fill="#203129" transform="translate(0,0)"/>
<path d="" fill="#20332A" transform="translate(0,0)"/>
<path d="" fill="#21312C" transform="translate(0,0)"/>
<path d="" fill="#21352D" transform="translate(0,0)"/>
<path d="" fill="#22342D" transform="translate(0,0)"/>
<path d="" fill="#293B33" transform="translate(0,0)"/>
<path d="" fill="#2B3A35" transform="translate(0,0)"/>
<path d="" fill="#293A33" transform="translate(0,0)"/>
<path d="" fill="#253630" transform="translate(0,0)"/>
<path d="" fill="#293C33" transform="translate(0,0)"/>
<path d="" fill="#273732" transform="translate(0,0)"/>
<path d="" fill="#263630" transform="translate(0,0)"/>
<path d="" fill="#2A3D33" transform="translate(0,0)"/>
<path d="" fill="#253931" transform="translate(0,0)"/>
<path d="" fill="#2A3D35" transform="translate(0,0)"/>
<path d="" fill="#2C4036" transform="translate(0,0)"/>
<path d="" fill="#283A31" transform="translate(0,0)"/>
<path d="" fill="#283D36" transform="translate(0,0)"/>
<path d="" fill="#253931" transform="translate(0,0)"/>
<path d="" fill="#273930" transform="translate(0,0)"/>
<path d="" fill="#273833" transform="translate(0,0)"/>
<path d="" fill="#253A2F" transform="translate(0,0)"/>
<path d="" fill="#2B3D34" transform="translate(0,0)"/>
<path d="" fill="#2B3D34" transform="translate(0,0)"/>
<path d="" fill="#26352F" transform="translate(0,0)"/>
<path d="" fill="#283932" transform="translate(0,0)"/>
<path d="" fill="#2C4238" transform="translate(0,0)"/>
<path d="" fill="#2A3E34" transform="translate(0,0)"/>
<path d="" fill="#263832" transform="translate(0,0)"/>
<path d="" fill="#263932" transform="translate(0,0)"/>
<path d="" fill="#273C33" transform="translate(0,0)"/>
<path d="" fill="#263731" transform="translate(0,0)"/>
<path d="" fill="#283D34" transform="translate(0,0)"/>
<path d="" fill="#253630" transform="translate(0,0)"/>
<path d="" fill="#243831" transform="translate(0,0)"/>
<path d="" fill="#263A30" transform="translate(0,0)"/>
<path d="" fill="#283C35" transform="translate(0,0)"/>
<path d="" fill="#283E35" transform="translate(0,0)"/>
<path d="" fill="#293F34" transform="translate(0,0)"/>
<path d="" fill="#2A4235" transform="translate(0,0)"/>
<path d="" fill="#243A2F" transform="translate(0,0)"/>
<path d="" fill="#253931" transform="translate(0,0)"/>
<path d="" fill="#273C32" transform="translate(0,0)"/>
<path d="" fill="#253931" transform="translate(0,0)"/>
<path d="" fill="#2A3D34" transform="translate(0,0)"/>
<path d="" fill="#283B34" transform="translate(0,0)"/>
<path d="" fill="#273930" transform="translate(0,0)"/>
<path d="" fill="#263B32" transform="translate(0,0)"/>
<path d="" fill="#273A31" transform="translate(0,0)"/>
<path d="" fill="#253933" transform="translate(0,0)"/>
<path d="" fill="#253A30" transform="translate(0,0)"/>
<path d="" fill="#273A32" transform="translate(0,0)"/>
<path d="" fill="#263B32" transform="translate(0,0)"/>
<path d="" fill="#24362F" transform="translate(0,0)"/>
<path d="" fill="#263730" transform="translate(0,0)"/>
<path d="" fill="#283F35" transform="translate(0,0)"/>
<path d="" fill="#263D35" transform="translate(0,0)"/>
<path d="" fill="#253732" transform="translate(0,0)"/>
<path d="" fill="#283C33" transform="translate(0,0)"/>
<path d="" fill="#263831" transform="translate(0,0)"/>
<path d="" fill="#263631" transform="translate(0,0)"/>
<path d="" fill="#233531" transform="translate(0,0)"/>
<path d="" fill="#243730" transform="translate(0,0)"/>
<path d="" fill="#253A31" transform="translate(0,0)"/>
<path d="" fill="#2A3D37" transform="translate(0,0)"/>
<path d="" fill="#283D34" transform="translate(0,0)"/>
<path d="" fill="#2A3E36" transform="translate(0,0)"/>
<path d="" fill="#273932" transform="translate(0,0)"/>
<path d="" fill="#26392F" transform="translate(0,0)"/>
<path d="" fill="#293C34" transform="translate(0,0)"/>
</svg>
